<?xml version="1.0" standalone="no"?>
<svg xmlns:xlink="http://www.w3.org/1999/xlink" id="wave" style="transform:rotate(0deg); transition: 0.3s" viewBox="0 0 1440 490" version="1.1" xmlns="http://www.w3.org/2000/svg"><defs><linearGradient id="sw-gradient-0" x1="0" x2="0" y1="1" y2="0"><stop stop-color="rgba(245, 54, 92, 1)" offset="0%"/><stop stop-color="rgba(251, 99, 64, 1)" offset="100%"/></linearGradient></defs><path style="transform:translate(0, 0px); opacity:1" fill="url(#sw-gradient-0)" d="M0,294L16,261.3C32,229,64,163,96,187.8C128,212,160,327,192,383.8C224,441,256,441,288,416.5C320,392,352,343,384,310.3C416,278,448,261,480,261.3C512,261,544,278,576,277.7C608,278,640,261,672,228.7C704,196,736,147,768,122.5C800,98,832,98,864,138.8C896,180,928,261,960,310.3C992,359,1024,376,1056,375.7C1088,376,1120,359,1152,318.5C1184,278,1216,212,1248,212.3C1280,212,1312,278,1344,302.2C1376,327,1408,310,1440,318.5C1472,327,1504,359,1536,375.7C1568,392,1600,392,1632,326.7C1664,261,1696,131,1728,81.7C1760,33,1792,65,1824,98C1856,131,1888,163,1920,196C1952,229,1984,261,2016,294C2048,327,2080,359,2112,334.8C2144,310,2176,229,2208,212.3C2240,196,2272,245,2288,269.5L2304,294L2304,490L2288,490C2272,490,2240,490,2208,490C2176,490,2144,490,2112,490C2080,490,2048,490,2016,490C1984,490,1952,490,1920,490C1888,490,1856,490,1824,490C1792,490,1760,490,1728,490C1696,490,1664,490,1632,490C1600,490,1568,490,1536,490C1504,490,1472,490,1440,490C1408,490,1376,490,1344,490C1312,490,1280,490,1248,490C1216,490,1184,490,1152,490C1120,490,1088,490,1056,490C1024,490,992,490,960,490C928,490,896,490,864,490C832,490,800,490,768,490C736,490,704,490,672,490C640,490,608,490,576,490C544,490,512,490,480,490C448,490,416,490,384,490C352,490,320,490,288,490C256,490,224,490,192,490C160,490,128,490,96,490C64,490,32,490,16,490L0,490Z"/><defs><linearGradient id="sw-gradient-1" x1="0" x2="0" y1="1" y2="0"><stop stop-color="rgba(243, 106, 62, 1)" offset="0%"/><stop stop-color="rgba(255, 179, 11, 1)" offset="100%"/></linearGradient></defs><path style="transform:translate(0, 50px); opacity:0.9" fill="url(#sw-gradient-1)" d="M0,343L16,318.5C32,294,64,245,96,196C128,147,160,98,192,89.8C224,82,256,114,288,147C320,180,352,212,384,220.5C416,229,448,212,480,171.5C512,131,544,65,576,89.8C608,114,640,229,672,294C704,359,736,376,768,392C800,408,832,425,864,392C896,359,928,278,960,236.8C992,196,1024,196,1056,204.2C1088,212,1120,229,1152,212.3C1184,196,1216,147,1248,155.2C1280,163,1312,229,1344,261.3C1376,294,1408,294,1440,318.5C1472,343,1504,392,1536,383.8C1568,376,1600,310,1632,269.5C1664,229,1696,212,1728,245C1760,278,1792,359,1824,343C1856,327,1888,212,1920,138.8C1952,65,1984,33,2016,16.3C2048,0,2080,0,2112,40.8C2144,82,2176,163,2208,228.7C2240,294,2272,343,2288,367.5L2304,392L2304,490L2288,490C2272,490,2240,490,2208,490C2176,490,2144,490,2112,490C2080,490,2048,490,2016,490C1984,490,1952,490,1920,490C1888,490,1856,490,1824,490C1792,490,1760,490,1728,490C1696,490,1664,490,1632,490C1600,490,1568,490,1536,490C1504,490,1472,490,1440,490C1408,490,1376,490,1344,490C1312,490,1280,490,1248,490C1216,490,1184,490,1152,490C1120,490,1088,490,1056,490C1024,490,992,490,960,490C928,490,896,490,864,490C832,490,800,490,768,490C736,490,704,490,672,490C640,490,608,490,576,490C544,490,512,490,480,490C448,490,416,490,384,490C352,490,320,490,288,490C256,490,224,490,192,490C160,490,128,490,96,490C64,490,32,490,16,490L0,490Z"/></svg>