<?xml version="1.0" standalone="no"?><svg xmlns="http://www.w3.org/2000/svg" viewBox="0 0 1440 320"><path fill="#F5365C" fill-opacity="0.5" d="M0,224L17.1,240C34.3,256,69,288,103,250.7C137.1,213,171,107,206,58.7C240,11,274,21,309,64C342.9,107,377,181,411,213.3C445.7,245,480,235,514,229.3C548.6,224,583,224,617,234.7C651.4,245,686,267,720,245.3C754.3,224,789,160,823,122.7C857.1,85,891,75,926,101.3C960,128,994,192,1029,197.3C1062.9,203,1097,149,1131,112C1165.7,75,1200,53,1234,53.3C1268.6,53,1303,75,1337,85.3C1371.4,96,1406,96,1423,96L1440,96L1440,0L1422.9,0C1405.7,0,1371,0,1337,0C1302.9,0,1269,0,1234,0C1200,0,1166,0,1131,0C1097.1,0,1063,0,1029,0C994.3,0,960,0,926,0C891.4,0,857,0,823,0C788.6,0,754,0,720,0C685.7,0,651,0,617,0C582.9,0,549,0,514,0C480,0,446,0,411,0C377.1,0,343,0,309,0C274.3,0,240,0,206,0C171.4,0,137,0,103,0C68.6,0,34,0,17,0L0,0Z"></path></svg>