<?xml version="1.0" encoding="utf-8"?>
<svg xmlns="http://www.w3.org/2000/svg" xmlns:xlink="http://www.w3.org/1999/xlink" style="margin: auto; background: rgb(255, 255, 255); display: block; shape-rendering: auto;" width="200px" height="200px" viewBox="0 0 100 100" preserveAspectRatio="xMidYMid">
<g transform="translate(50 50)">
<g>
<animateTransform attributeName="transform" type="rotate" values="0;45" keyTimes="0;1" dur="0.2s" repeatCount="indefinite"></animateTransform><path d="M24.57132475061123 -8.5 L35.571324750611225 -8.5 L35.571324750611225 8.5 L24.57132475061123 8.5 A26 26 0 0 1 23.38495799397971 11.3641427138084 L23.38495799397971 11.3641427138084 L31.163132587031733 19.142317306860424 L19.142317306860424 31.163132587031733 L11.3641427138084 23.38495799397971 A26 26 0 0 1 8.500000000000004 24.57132475061123 L8.500000000000004 24.57132475061123 L8.500000000000004 35.571324750611225 L-8.5 35.571324750611225 L-8.5 24.57132475061123 A26 26 0 0 1 -11.364142713808397 23.38495799397971 L-11.364142713808397 23.38495799397971 L-19.14231730686042 31.163132587031736 L-31.16313258703173 19.142317306860427 L-23.384957993979707 11.364142713808402 A26 26 0 0 1 -24.57132475061123 8.500000000000004 L-24.57132475061123 8.500000000000004 L-35.571324750611225 8.500000000000005 L-35.571324750611225 -8.499999999999996 L-24.57132475061123 -8.499999999999998 A26 26 0 0 1 -23.38495799397971 -11.364142713808395 L-23.38495799397971 -11.364142713808395 L-31.16313258703174 -19.142317306860413 L-19.14231730686044 -31.16313258703172 L-11.364142713808413 -23.3849579939797 A26 26 0 0 1 -8.499999999999996 -24.571324750611232 L-8.499999999999996 -24.571324750611232 L-8.499999999999998 -35.57132475061123 L8.499999999999984 -35.57132475061124 L8.499999999999986 -24.571324750611236 A26 26 0 0 1 11.364142713808404 -23.384957993979707 L11.364142713808404 -23.384957993979707 L19.142317306860424 -31.163132587031733 L31.163132587031722 -19.14231730686044 L23.3849579939797 -11.364142713808414 A26 26 0 0 1 24.571324750611232 -8.499999999999996 M0 -19A19 19 0 1 0 0 19 A19 19 0 1 0 0 -19" fill="#2ba9cd"></path></g></g>
<!-- [ldio] generated by https://loading.io/ --></svg>